<?xml version="1.0" standalone="no"?>
<!DOCTYPE svg PUBLIC "-//W3C//DTD SVG 20010904//EN"
 "http://www.w3.org/TR/2001/REC-SVG-20010904/DTD/svg10.dtd">
<svg version="1.0" xmlns="http://www.w3.org/2000/svg"
 width="600.000000pt" height="600.000000pt" viewBox="0 0 600.000000 600.000000"
 preserveAspectRatio="xMidYMid meet">
<metadata>
Created by potrace 1.11, written by Peter Selinger 2001-2013
</metadata>
<g transform="translate(0.000000,600.000000) scale(0.100000,-0.100000)"
fill="#000000" stroke="none">
<path d="M2797 4843 c-1 -1 -40 -4 -87 -7 -139 -10 -223 -20 -380 -46 -161
-27 -162 -28 -293 -61 -540 -135 -999 -380 -1323 -703 -124 -125 -158 -166
-239 -286 -98 -147 -194 -357 -221 -484 -40 -188 -49 -347 -30 -511 24 -205
120 -453 251 -644 319 -466 856 -808 1547 -985 117 -30 180 -44 343 -72 47 -8
52 -9 130 -18 33 -3 76 -9 95 -11 130 -19 607 -20 780 -1 172 18 250 31 495
80 11 2 63 16 115 30 52 15 102 28 110 31 62 16 247 83 346 125 725 310 1208
838 1299 1420 4 25 9 54 11 65 6 31 5 264 -1 315 -26 206 -104 425 -212 593
-24 37 -43 70 -43 73 0 12 -151 193 -216 259 -317 322 -772 573 -1290 711
-123 32 -276 64 -379 79 -22 3 -47 8 -55 10 -14 4 -42 7 -155 19 -137 15 -588
29 -598 19z m483 -347 c47 -4 96 -9 110 -11 14 -2 45 -7 70 -10 574 -73 1150
-320 1483 -634 27 -25 53 -47 58 -49 5 -2 9 -8 9 -13 0 -5 -11 -4 -26 1 -47
18 -105 12 -140 -15 -26 -20 -80 -103 -168 -260 -12 -21 -196 -340 -232 -403
-101 -173 -450 -777 -543 -940 l-116 -203 -50 103 c-27 57 -70 146 -94 198
-62 134 -131 280 -181 385 -125 263 -279 595 -285 616 -28 86 -134 144 -222
120 -75 -21 -100 -49 -162 -176 -110 -226 -223 -460 -271 -560 -26 -55 -103
-212 -170 -350 -67 -137 -126 -260 -131 -272 -5 -13 -12 -23 -16 -23 -5 1 -57
87 -118 192 -60 105 -150 259 -198 342 -49 83 -101 174 -117 201 -37 66 -82
144 -170 295 -83 143 -68 118 -234 405 -175 302 -188 320 -241 338 -52 18
-121 15 -167 -7 -27 -13 -21 -5 32 45 335 317 830 547 1385 644 133 23 164 27
365 43 102 9 422 7 540 -2z m-2425 -884 c1 -39 10 -64 59 -147 32 -55 66 -113
76 -130 42 -74 387 -669 435 -750 66 -113 257 -443 450 -775 182 -315 168
-292 211 -334 l36 -34 -59 14 c-204 52 -505 176 -672 277 -52 31 -98 57 -103
57 -4 0 -8 5 -8 10 0 6 -4 10 -10 10 -8 0 -124 83 -140 100 -3 3 -21 17 -40
31 -100 75 -256 250 -341 384 -209 327 -237 715 -76 1055 31 66 166 280 176
280 3 0 6 -21 6 -48z m4324 -36 c90 -131 177 -325 196 -440 3 -17 8 -38 11
-48 9 -32 12 -233 3 -293 -5 -33 -11 -73 -13 -90 -8 -52 -52 -177 -89 -255
-120 -252 -378 -517 -678 -698 -193 -115 -438 -221 -649 -280 -19 -5 -44 -13
-55 -17 -13 -4 -10 0 7 11 22 15 79 100 143 216 6 10 199 345 430 745 231 399
471 814 533 922 111 192 113 197 109 249 -2 28 -3 52 -2 52 2 0 26 -33 54 -74z
m-2123 -933 c31 -65 102 -217 159 -338 57 -121 124 -265 150 -320 26 -55 78
-167 117 -250 38 -82 81 -175 97 -205 30 -61 78 -100 122 -100 28 0 43 -19 17
-21 -7 0 -20 -2 -28 -4 -71 -14 -196 -35 -245 -41 -33 -3 -69 -8 -80 -10 -110
-20 -659 -20 -760 0 -11 2 -49 7 -85 11 -36 4 -74 9 -85 11 -11 2 -47 9 -80
15 -33 5 -67 12 -75 14 -8 2 -19 4 -25 5 -5 0 7 7 29 15 36 12 116 79 116 96
0 4 33 76 74 161 70 146 110 228 330 683 54 110 118 244 144 298 25 53 47 97
49 97 2 0 29 -53 59 -117z"/>
</g>
</svg>
